<svg version="1.1" id="Layer_1" xmlns="http://www.w3.org/2000/svg" xmlns:xlink="http://www.w3.org/1999/xlink" x="0px" y="0px"
	 width="100%" viewBox="0 0 608 608" enable-background="new 0 0 608 608" xml:space="preserve">
<path fill="#000000" opacity="1.000000" stroke="none" 
	d="
M284.046661,460.868713 
	C285.833313,462.323395 287.348297,463.560333 289.344360,465.190063 
	C290.819061,452.039764 291.688843,439.490601 294.825073,427.285797 
	C296.119049,422.250336 297.873444,417.361420 300.753967,413.054749 
	C307.884552,402.393829 319.474274,398.454315 331.871124,402.742554 
	C345.388702,407.418518 357.457336,414.851257 368.484344,423.858368 
	C373.531921,427.981354 377.631622,433.276001 375.094757,440.343567 
	C372.496185,447.582916 366.523682,451.133575 359.085297,452.228699 
	C356.289429,452.640320 353.455658,452.999695 350.637054,453.015839 
	C338.854370,453.083313 330.067505,458.919739 322.707794,467.420502 
	C314.866241,476.477875 305.499451,480.788086 292.018219,475.465149 
	C274.396912,468.507538 258.154053,459.070984 242.201187,449.075714 
	C217.448883,433.567169 193.621506,416.852325 173.159012,395.735107 
	C143.402542,365.026550 122.600281,329.735077 117.061920,286.657135 
	C111.017448,239.642609 124.816833,200.314407 164.704193,173.002716 
	C201.935257,147.509842 251.099030,153.949661 282.378296,186.667526 
	C289.801910,194.432571 295.863922,203.139160 300.824554,213.000610 
	C302.952271,211.926483 303.533691,209.904236 304.550018,208.335922 
	C319.402313,185.417206 340.014374,170.516754 366.747101,164.867126 
	C405.157654,156.749542 443.522247,172.835999 463.835175,206.798096 
	C488.812805,248.559265 488.351959,290.782654 462.509277,332.327728 
	C460.893036,334.925995 459.658081,338.365326 455.593048,338.993073 
	C454.808411,335.967255 456.118256,333.558716 457.000366,331.139648 
	C462.083862,317.198883 466.268066,303.101166 467.887543,288.217285 
	C470.338348,265.692413 465.375732,244.856476 454.726410,225.228592 
	C443.240601,204.058960 426.230469,189.834396 402.113647,185.209335 
	C369.419250,178.939255 335.514526,195.970871 321.027618,225.980606 
	C316.251465,235.874435 311.916534,245.980652 307.321411,255.962860 
	C306.066040,258.689941 304.759491,261.860443 301.263916,261.914978 
	C297.815796,261.968750 296.370300,258.813263 294.813477,256.277832 
	C289.912506,248.296143 286.420288,239.652054 282.862061,231.019257 
	C272.491119,205.857880 255.004593,188.574722 227.724258,182.910843 
	C206.219360,178.446075 187.191422,184.280716 170.541321,198.276001 
	C143.440491,221.055679 134.934540,250.659821 139.128540,284.794006 
	C142.707016,313.918549 156.983459,338.144684 174.388794,360.875702 
	C188.752090,379.633850 206.344467,395.134125 223.871933,410.826141 
	C243.253494,428.178101 263.244720,444.719086 284.046661,460.868713 
z"/>
<path fill="#000000" opacity="1.000000" stroke="none" 
	d="
M356.337158,272.236023 
	C361.357025,269.945923 365.937225,267.506958 370.772797,265.785278 
	C391.346344,258.459991 407.505219,267.917755 411.194244,289.468658 
	C412.761047,298.621735 413.928925,307.848816 415.053986,317.069611 
	C415.684998,322.241028 415.237305,327.408295 412.930389,332.194366 
	C409.531799,339.245300 403.155273,341.636108 395.914429,338.702759 
	C391.206268,336.795410 386.760162,334.062378 383.741547,330.196564 
	C374.583679,318.468353 362.390350,313.868744 348.076660,313.333740 
	C344.373840,313.195312 340.875702,311.962402 337.655334,310.167084 
	C328.610992,305.124939 326.953308,295.245911 333.733948,287.406158 
	C336.168182,284.591705 339.221863,282.581909 342.345581,280.668182 
	C346.883728,277.887909 351.456787,275.164703 356.337158,272.236023 
z"/>
<path fill="#000000" opacity="1.000000" stroke="none" 
	d="
M268.616150,352.747009 
	C281.509399,355.926453 287.015381,365.732452 291.181061,376.488617 
	C293.443756,382.330994 295.172150,388.451996 293.407990,394.948212 
	C290.772827,404.651855 281.532257,409.090973 272.366455,404.796143 
	C260.972626,399.457367 255.766846,389.510498 252.824112,377.995575 
	C252.086609,375.109650 251.652161,372.161652 251.673508,369.131470 
	C251.752396,357.938599 257.030090,352.635529 268.616150,352.747009 
z"/>
<path fill="#000000" opacity="1.000000" stroke="none" 
	d="
M313.830566,336.919128 
	C327.355713,346.435791 333.104645,359.057831 330.215454,375.061523 
	C327.962830,387.539093 318.344452,391.817963 307.635895,385.012451 
	C294.889771,376.912018 289.191254,364.571228 289.895081,349.849335 
	C290.546906,336.214691 300.577301,331.045624 313.830566,336.919128 
z"/>
<path fill="#000000" opacity="1.000000" stroke="none" 
	d="
M378.127441,246.207840 
	C368.330902,241.807510 365.211823,226.514877 372.889465,214.820984 
	C375.083221,211.479630 377.796722,208.554825 381.276245,206.382233 
	C392.550110,199.342789 406.308441,206.331848 407.284363,219.680008 
	C407.949921,228.783173 404.317749,236.356964 398.092163,242.555176 
	C392.603638,248.019608 385.974030,250.038696 378.127441,246.207840 
z"/>
<path fill="#000000" opacity="1.000000" stroke="none" 
	d="
M445.333496,239.232788 
	C445.338409,254.428391 435.776733,265.226532 422.607971,265.364655 
	C414.729401,265.447327 409.855530,261.921509 407.415741,254.374680 
	C404.094116,244.099838 409.212006,230.678284 418.533722,225.218094 
	C430.598633,218.151077 443.339935,224.602219 445.333496,239.232788 
z"/>
<path fill="#000000" opacity="1.000000" stroke="none" 
	d="
M354.253967,402.919739 
	C344.548737,403.826324 338.096649,398.562042 335.551300,387.841644 
	C333.409088,378.819000 334.642517,370.232574 340.137329,362.646606 
	C344.673035,356.384766 352.525421,355.700653 358.050446,360.702728 
	C368.263855,369.949493 366.206879,395.343506 354.253967,402.919739 
z"/>
<path fill="#000000" opacity="1.000000" stroke="none" 
	d="
M243.143997,415.922729 
	C244.492966,408.417114 247.718307,405.561066 255.246307,404.776428 
	C267.862701,403.461487 282.685394,415.297882 284.184906,427.884888 
	C285.281006,437.085693 275.930054,444.332397 266.261841,440.841217 
	C254.699890,436.666168 245.704269,429.350922 243.143997,415.922729 
z"/>
<path fill="#000000" opacity="1.000000" stroke="none" 
	d="
M454.282898,285.966156 
	C449.312958,294.868500 441.230347,298.472260 432.199707,300.232056 
	C427.593842,301.129578 422.687927,301.108704 419.511566,296.657928 
	C416.236847,292.069366 416.398682,287.022095 418.504761,281.983978 
	C421.979553,273.671844 435.150726,266.454773 444.062897,267.921204 
	C453.924316,269.543762 457.742004,276.063324 454.282898,285.966156 
z"/>
<path fill="#000000" opacity="1.000000" stroke="none" 
	d="
M361.838318,243.648499 
	C362.439392,247.224945 362.509399,250.361420 361.619385,253.473221 
	C358.887970,263.023529 348.712402,266.031860 341.734283,258.931885 
	C334.844574,251.921875 332.440460,243.286987 335.279846,233.641251 
	C336.554260,229.311935 339.636169,226.519562 344.139435,225.788422 
	C348.826324,225.027451 353.057983,225.896774 356.177826,230.006012 
	C359.177551,233.957153 360.827881,238.420593 361.838318,243.648499 
z"/>
</svg>